# xmcd
#
# Track frame offsets:
#	150
#	60005
#	98620
#	177820
#	207070
#
# Disc length: 3177 seconds
#
# Revision: 0
# Processed by: cddbd v1.5.2PL0 Copyright (c) Steve Scherf et al.
# Submitted via: EasyCDDAExtractor 16.0.6.1
#
DISCID=2e0c6705
DTITLE=Άνευ ερμηνευτού - Βυζαντινοί μαΐστορες-Χ. Χάλαρης 1.1
DYEAR=1991
DGENRE=Βυζαντινή κοσμική
TTITLE0=Αρχή πλαγίου α' ήχου.Του Κουκουζέλη Η σημαντήρα
TTITLE1=Κυρ Ιωάννου Κουκουζέλη ήχος β'
TTITLE2=Του Κουκουζέλη ήχος πλάγιος β'
TTITLE3=Ιωάννου Κουκουζέλη ήχος γ'
TTITLE4=Του Μαΐστορος Ιωάννου Κουκουζέλη ο Τροχός
EXTD=
EXTT0=
EXTT1=
EXTT2=
EXTT3=
EXTT4=
PLAYORDER=
